<svg xmlns="http://www.w3.org/2000/svg" id="Larger_Smaller_TEMPLATE_Trajan_Pro" data-name="Larger/Smaller TEMPLATE Trajan Pro" viewBox="0 0 516.21 45.34" preserveAspectRatio="xMinYMax meet"><defs><style>.cls-1{fill:#ffffff}.cls-2{fill:#ffffff}</style></defs><title>logo_columbia_university_irving_medical_center_desktop</title><g id="TEMPLATE_STARTER" data-name="TEMPLATE STARTER"><g id="Horizontal_Orientation" data-name="Horizontal Orientation"><g id="_2_Lines:_1_Large_Line_1_Small_Line" data-name="2 Lines: 1 Large Line; 1 Small Line"><path id="Vertical_Bar_for_2_Lines:_1_Large_Line_1_Small_Line" data-name="Vertical Bar for 2 Lines: 1 Large Line; 1 Small Line" class="cls-1" d="M246.67 0h1.2v45.34h-1.2z"/><path class="cls-1" d="M616.93 302.43a7.08 7.08 0 0 1-.12-10.17 7.79 7.79 0 0 1 5.65-1.89 17.63 17.63 0 0 1 2.59.18c.68.09 1.25.25 1.79.3.2 0 .27.11.27.21s-.05.36-.09 1 0 1.57-.05 1.93-.05.41-.21.41-.18-.14-.18-.39a2.55 2.55 0 0 0-.7-1.64 5.33 5.33 0 0 0-3.63-1.11 4.66 4.66 0 0 0-3.36 1.11 6.68 6.68 0 0 0 4 11c1.59 0 2.56-.18 3.27-1a3 3 0 0 0 .61-1.18c.05-.29.09-.36.23-.36s.16.13.16.27a17 17 0 0 1-.39 2.38.63.63 0 0 1-.46.52 10.34 10.34 0 0 1-3.22.41 8.93 8.93 0 0 1-6.16-1.98zM629.78 298.37c0-2.59 1.82-6 6.59-6 4 0 6.43 2.2 6.43 5.68s-2.54 6.22-6.59 6.22c-4.57.05-6.43-3.2-6.43-5.9zm10.69.29c0-3.36-2-5.43-4.56-5.43-1.75 0-3.81.93-3.81 4.68 0 3.13 1.79 5.59 4.75 5.59 1.15 0 3.61-.5 3.61-4.84zM648.74 299.71c0 1.95 0 2.91.34 3.2s.88.32 2.09.32c.84 0 1.45 0 1.84-.43a1.83 1.83 0 0 0 .39-.91c0-.14.05-.23.18-.23s.14.16.14.34a11.52 11.52 0 0 1-.23 1.75c-.11.34-.18.41-1 .41-1.13 0-2 0-2.82-.05s-1.45 0-2.09 0h-1.98c-.32 0-.3-.05-.3-.16s.05-.16.25-.16a2.32 2.32 0 0 0 .55-.05c.32-.07.41-.36.46-.8.07-.64.07-1.84.07-3.23V297v-3.22c0-.49-.18-.68-.68-.82a2.1 2.1 0 0 0-.52-.05q-.27 0-.27-.16c0-.11.11-.14.34-.14h4.43c.23 0 .34 0 .34.14s-.09.16-.29.16a3.5 3.5 0 0 0-.61.05c-.43.07-.55.29-.59.82s0 .91 0 3.22zM656.36 297v-3.22c0-.49-.18-.68-.68-.82a2.83 2.83 0 0 0-.61-.05q-.27 0-.27-.16c0-.11.11-.14.34-.14H659.5c.23 0 .34 0 .34.14s-.09.16-.25.16a2.19 2.19 0 0 0-.46.05c-.41.07-.54.29-.57.82s0 .91 0 3.22v2.13c0 2.22.43 3.07 1.2 3.68a3 3 0 0 0 2 .61 3 3 0 0 0 2.11-.8c.88-.82.91-2.14.91-3.7V297v-3.22c0-.49-.16-.68-.66-.82a2.71 2.71 0 0 0-.57-.05q-.27 0-.27-.16c0-.11.11-.14.32-.14H667.32c.21 0 .32 0 .32.14s-.09.16-.27.16a2.19 2.19 0 0 0-.46.05c-.43.07-.54.29-.57.82s0 .91 0 3.22v1.63c0 1.7-.18 3.48-1.5 4.57a4.9 4.9 0 0 1-3.32 1.09 5.43 5.43 0 0 1-3.59-1c-.8-.7-1.43-1.82-1.43-4zM671.82 292.76c0-.25.18-.39.3-.39s.27.07.48.48l4.22 8.4 4.22-8.5c.13-.25.27-.38.41-.38s.3.16.36.48l1.43 9.35c.14.95.29 1.36.77 1.5a3.11 3.11 0 0 0 .89.14c.14 0 .25.05.25.14s-.18.18-.41.18c-.39 0-2.63-.05-3.25-.09-.37 0-.46-.09-.46-.18s.07-.12.18-.16.13-.21.07-.64l-.88-6.56h-.05l-3.35 6.72c-.36.71-.45.86-.63.86s-.37-.3-.62-.77c-.38-.7-1.63-3-1.8-3.45s-1.05-2.13-1.57-3.18h-.05l-.75 5.86a4.94 4.94 0 0 0-.05.71c0 .29.21.39.48.45a2.75 2.75 0 0 0 .55.07c.14 0 .25.07.25.14s-.14.18-.38.18c-.66 0-1.38-.05-1.66-.05s-1.05.05-1.55.05c-.16 0-.29 0-.29-.18s.09-.14.25-.14a2.85 2.85 0 0 0 .48 0c.43-.05.57-.66.64-1.16zM688.62 297v-3.22c0-.49-.18-.68-.68-.82a2.9 2.9 0 0 0-.62-.05c-.16 0-.27-.05-.27-.16s.13-.14.36-.14h4.49c2.84 0 3.34 1.47 3.34 2.27a3.35 3.35 0 0 1-1.77 2.66c1.29.41 2.89 1.5 2.89 3.29 0 1.63-1.29 3.31-4.18 3.31-.18 0-.71 0-1.25-.05H687.61c-.32 0-.3-.05-.3-.16s.05-.16.25-.16a2.32 2.32 0 0 0 .55-.05c.32-.07.41-.36.46-.8.07-.64.07-1.84.07-3.23zm2 .25c0 .13.05.14.11.16a3.36 3.36 0 0 0 .73.05 2 2 0 0 0 1.23-.27 2 2 0 0 0 .71-1.61 2.11 2.11 0 0 0-2-2.29 4 4 0 0 0-.68 0c-.11 0-.14.09-.14.25zm0 4.47c0 1 .05 1.3.55 1.5a2.9 2.9 0 0 0 1.13.18 1.88 1.88 0 0 0 1.93-2.14 3.33 3.33 0 0 0-1.48-2.7 2.23 2.23 0 0 0-1.36-.39h-.68c-.05 0-.09 0-.09.11zM700.24 297v-3.22c0-.49-.2-.7-.54-.8a2 2 0 0 0-.57-.07c-.16 0-.25 0-.25-.18s.13-.12.38-.12H703.37c.2 0 .32 0 .32.13s-.09.18-.25.18a2.19 2.19 0 0 0-.46.05c-.43.07-.55.29-.59.82s0 .91 0 3.22v2.68c0 1.47 0 2.68.07 3.32.05.41.16.64.63.71a5.89 5.89 0 0 0 .8.05c.18 0 .25.09.25.16s-.12.16-.3.16c-1 0-2.11-.05-2.54-.05s-1.43.05-2.05.05c-.2 0-.3-.05-.3-.16s.05-.16.25-.16a2.32 2.32 0 0 0 .55-.05c.32-.07.41-.29.46-.73.07-.63.07-1.84.07-3.31zM709.08 300.28c-.09 0-.11 0-.14.11l-.84 2.05a2.75 2.75 0 0 0-.23.93c0 .27.14.43.63.43h.23c.2 0 .23.07.23.16s-.09.16-.25.16c-.52 0-1.25-.05-1.75-.05-.16 0-1 .05-1.82.05-.2 0-.29 0-.29-.16s.05-.16.18-.16h.46c.71-.11 1-.57 1.3-1.34l4.11-9.49c.18-.43.3-.61.46-.61s.3.14.46.48c.38.84 3 7 4 9.29.61 1.38 1.05 1.57 1.34 1.63a3.8 3.8 0 0 0 .59.05c.14 0 .21.05.21.16s-.09.16-.68.16h-3c-.29 0-.46 0-.46-.13s0-.14.2-.16a.24.24 0 0 0 .14-.34l-1.22-3.07a.15.15 0 0 0-.16-.11zm3.36-.84c.07 0 .09 0 .07-.09l-1.51-3.8c0-.05 0-.14-.07-.14s-.07.09-.09.14l-1.52 3.79c0 .07 0 .11.05.11zM726.44 295.8v-3.79c0-.57-.18-.89-.77-1a3.69 3.69 0 0 0-.7-.05c-.2 0-.3 0-.3-.16s.13-.16.39-.16c.95 0 2.07.05 2.61.05s1.55-.05 2.2-.05c.27 0 .39 0 .39.16s-.11.16-.29.16a2.69 2.69 0 0 0-.52.05c-.48.09-.63.39-.66 1s0 1.07 0 3.79v2.5c0 2.59.52 3.68 1.39 4.4a3.31 3.31 0 0 0 2.23.73 3.5 3.5 0 0 0 2.47-1c1-1 1-2.59 1-4.43v-2.2-3.79c0-.57-.18-.89-.77-1a3.47 3.47 0 0 0-.64-.05c-.2 0-.3 0-.3-.16s.13-.16.38-.16c.91 0 2 .05 2.05.05.21 0 1.34-.05 2-.05.25 0 .38 0 .38.16s-.11.16-.32.16a2.69 2.69 0 0 0-.52.05c-.48.09-.63.39-.66 1s0 1.07 0 3.79v1.91c0 2-.2 4.09-1.7 5.38a5.33 5.33 0 0 1-3.72 1.29 5.75 5.75 0 0 1-4-1.23c-.91-.82-1.59-2.14-1.59-4.73zM743.24 302.05c0 1.18.23 1.54.54 1.64a2.68 2.68 0 0 0 .82.11c.18 0 .27.07.27.16s-.14.16-.36.16c-1 0-1.75-.05-2-.05s-.89.05-1.7.05c-.21 0-.36 0-.36-.16s.11-.16.25-.16a3.25 3.25 0 0 0 .71-.07c.41-.11.46-.52.48-1.84l.14-9c0-.3.11-.52.27-.52s.41.23.68.5 2.56 2.61 4.84 4.84c1.07 1.05 3.16 3.2 3.39 3.41h.07l-.16-6.75c0-.93-.16-1.2-.54-1.34a2.64 2.64 0 0 0-.82-.09c-.2 0-.25-.07-.25-.16s.16-.14.39-.14h3.54c.21 0 .36 0 .36.14s-.09.16-.27.16a1.59 1.59 0 0 0-.48.05c-.43.13-.55.39-.57 1.25l-.18 9.58c0 .34-.12.48-.25.48a.93.93 0 0 1-.64-.32c-1-.91-2.95-2.79-4.59-4.38s-3.38-3.48-3.68-3.75h-.05zM758.18 297v-3.22c0-.49-.2-.7-.54-.8a2 2 0 0 0-.57-.07c-.16 0-.25 0-.25-.18s.13-.12.38-.12H761.31c.2 0 .32 0 .32.13s-.09.18-.25.18a2.19 2.19 0 0 0-.46.05c-.43.07-.55.29-.59.82s0 .91 0 3.22v2.68c0 1.47 0 2.68.07 3.32.05.41.16.64.63.71a5.88 5.88 0 0 0 .8.05c.18 0 .25.09.25.16s-.12.16-.3.16c-1 0-2.11-.05-2.54-.05s-1.43.05-2.05.05c-.2 0-.3-.05-.3-.16s.05-.16.25-.16a2.31 2.31 0 0 0 .55-.05c.32-.07.41-.29.46-.73.07-.63.07-1.84.07-3.31zM764.87 294.12c-.36-.84-.59-1-1.16-1.13a2.77 2.77 0 0 0-.61-.05c-.14 0-.18-.07-.18-.16s.16-.14.39-.14h4.29c.2 0 .38 0 .38.14s-.11.16-.25.16a1.16 1.16 0 0 0-.61.11.33.33 0 0 0-.16.3 4.36 4.36 0 0 0 .36 1.14l2.68 6.81c.68-1.57 2.7-6.47 3.07-7.47a2.11 2.11 0 0 0 .14-.55c0-.16-.07-.21-.21-.27a2.42 2.42 0 0 0-.63-.07c-.14 0-.27-.05-.27-.16s.14-.14.45-.14h3.16c.2 0 .32 0 .32.14s-.09.16-.25.16a1.25 1.25 0 0 0-.77.18c-.2.14-.41.38-.82 1.34-.63 1.43-1 2.25-1.89 4.11-1 2.22-1.73 3.88-2.09 4.65s-.54 1.11-.75 1.11-.34-.2-.64-.91zM778.63 297v-3.22c0-.49-.18-.68-.68-.82a2.9 2.9 0 0 0-.62-.05c-.16 0-.27-.05-.27-.16s.13-.14.36-.14H783.98a6.51 6.51 0 0 0 .66-.09 1.87 1.87 0 0 1 .25-.07c.09 0 .11.07.11.14a6.79 6.79 0 0 0-.12 1c0 .16-.05.82-.09 1s-.05.25-.18.25-.12-.07-.12-.2a1.44 1.44 0 0 0-.11-.55c-.12-.27-.25-.48-1-.55-.27 0-2.14-.07-2.47-.07-.07 0-.11.05-.11.14v3.75c0 .09 0 .16.11.16h2.75a1.24 1.24 0 0 0 .75-.23c.13-.11.18-.2.25-.2a.14.14 0 0 1 .13.16c0 .09 0 .34-.12 1.11 0 .3-.07.91-.07 1s0 .34-.16.34-.14-.05-.14-.12 0-.36-.05-.55-.29-.54-.88-.59c-.29 0-2.07-.07-2.46-.07-.07 0-.09.07-.09.16v3.46c0 1 .52 1.27 2.13 1.27a4.25 4.25 0 0 0 1.48-.2c.39-.18.57-.5.68-1.13 0-.16.07-.23.18-.23s.14.2.14.36a10.22 10.22 0 0 1-.21 1.68c-.11.39-.25.39-.84.39-1.18 0-2.13 0-2.89-.05h-3.8c-.32 0-.3-.05-.3-.16s.05-.16.25-.16a2.31 2.31 0 0 0 .55-.05c.32-.07.41-.36.46-.8.07-.64.07-1.84.07-3.23zM789.46 297v-3.22c0-.49-.18-.68-.68-.82a2.9 2.9 0 0 0-.62-.05c-.16 0-.27-.05-.27-.16s.13-.14.36-.14h4.59a5.51 5.51 0 0 1 3 .64 2.65 2.65 0 0 1 1.11 2.09c0 1.13-.64 2.13-2.18 3.36 1.39 1.72 2.5 3.09 3.45 4a3 3 0 0 0 1.68 1 1.47 1.47 0 0 0 .38 0 .18.18 0 0 1 .2.16c0 .13-.11.16-.3.16h-1.5a3.41 3.41 0 0 1-1.71-.3 7.13 7.13 0 0 1-2.14-2.23c-.62-.82-1.29-1.84-1.48-2.07a.36.36 0 0 0-.29-.11h-1.41a.11.11 0 0 0-.12.13v.21c0 1.41 0 2.59.09 3.23.05.45.13.73.61.8a6 6 0 0 0 .77.05.18.18 0 0 1 .2.16c0 .11-.12.16-.32.16-.91 0-2.22-.05-2.45-.05s-1.3.05-1.93.05c-.2 0-.3-.05-.3-.16s.05-.16.25-.16a2.31 2.31 0 0 0 .55-.05c.32-.07.41-.36.46-.8.07-.64.07-1.84.07-3.23zm2 1.18c0 .16 0 .21.14.27a4.3 4.3 0 0 0 1.2.14 1.58 1.58 0 0 0 1.11-.25 2.57 2.57 0 0 0 1-2.25 2.39 2.39 0 0 0-2.39-2.7 5.69 5.69 0 0 0-.93.05c-.11 0-.14.09-.14.21zM801.49 303.93c-.25-.11-.3-.18-.3-.52 0-.82.07-1.77.09-2s.07-.39.2-.39.16.14.16.25a2.84 2.84 0 0 0 .14.79 2.43 2.43 0 0 0 2.5 1.5 2 2 0 0 0 2.18-1.93c0-.66-.16-1.32-1.55-2.14l-.91-.54c-1.86-1.09-2.47-2.11-2.47-3.45 0-1.86 1.79-3.06 4-3.06a9.33 9.33 0 0 1 2.23.25c.14 0 .21.09.21.2s-.05.63-.05 1.82c0 .32-.07.48-.2.48s-.16-.09-.16-.27a1.71 1.71 0 0 0-.41-1 2.11 2.11 0 0 0-1.75-.71c-1.13 0-2.14.59-2.14 1.63 0 .68.25 1.22 1.66 2l.64.36c2.07 1.14 2.72 2.3 2.72 3.68a3.25 3.25 0 0 1-1.57 2.84 4.59 4.59 0 0 1-2.63.63 6.68 6.68 0 0 1-2.59-.42zM812.54 297v-3.22c0-.49-.2-.7-.54-.8a2 2 0 0 0-.57-.07c-.16 0-.25 0-.25-.18s.13-.12.38-.12H815.67c.2 0 .32 0 .32.13s-.09.18-.25.18a2.19 2.19 0 0 0-.46.05c-.43.07-.55.29-.59.82s0 .91 0 3.22v2.68c0 1.47 0 2.68.07 3.32.05.41.16.64.63.71a5.88 5.88 0 0 0 .8.05c.18 0 .25.09.25.16s-.12.16-.3.16c-1 0-2.11-.05-2.54-.05s-1.43.05-2.05.05c-.2 0-.3-.05-.3-.16s.05-.16.25-.16a2.31 2.31 0 0 0 .55-.05c.32-.07.41-.29.46-.73.07-.63.07-1.84.07-3.31zM822.79 293.56l-2.34.05c-.91 0-1.29.13-1.52.46a1.75 1.75 0 0 0-.27.52c0 .13-.07.2-.18.2s-.14-.09-.14-.25.3-1.72.34-1.84.09-.29.18-.29.29.13.68.18a14.74 14.74 0 0 0 1.57.07h6.38a7 7 0 0 0 1.07-.07l.43-.07c.11 0 .13.09.13.32v1.84c0 .16-.05.25-.14.25s-.16-.07-.18-.3v-.16c0-.39-.45-.86-1.86-.88h-2v6.15c0 1.39 0 2.59.09 3.25.05.43.14.71.61.79a5.88 5.88 0 0 0 .8.05c.18 0 .25.09.25.16s-.12.16-.3.16c-1 0-2.09-.05-2.54-.05s-1.43.05-2.05.05c-.2 0-.3-.05-.3-.16s.05-.16.25-.16a2.22 2.22 0 0 0 .55-.05c.32-.07.41-.36.46-.8.07-.64.07-1.84.07-3.23zM834.7 300.18a3 3 0 0 0-.36-1.59c-.11-.23-2.25-3.57-2.8-4.38a3.47 3.47 0 0 0-1-1.07 1.56 1.56 0 0 0-.66-.2c-.12 0-.23-.05-.23-.16s.11-.14.3-.14h3.79c.14 0 .23 0 .23.14s-.11.13-.36.2-.21.11-.21.23a1.18 1.18 0 0 0 .2.52c.29.46 2.34 4 2.61 4.45.2-.36 2.11-3.61 2.34-4.07a2 2 0 0 0 .23-.8c0-.14-.07-.29-.34-.34s-.29-.05-.29-.18.09-.14.27-.14H841.64c.18 0 .29 0 .29.13s-.12.18-.3.18a1.92 1.92 0 0 0-.68.18 2.1 2.1 0 0 0-.82.71 51.15 51.15 0 0 0-3.06 4.86 3.55 3.55 0 0 0-.2 1.52v2.73c0 .45.18.73.64.8a6 6 0 0 0 .79.05c.18 0 .27.09.27.16s-.12.16-.34.16c-1 0-2-.05-2.47-.05s-1.45.05-2 .05c-.21 0-.34 0-.34-.16s.07-.16.25-.16a2.42 2.42 0 0 0 .55-.05c.32-.07.45-.36.48-.8.05-.64.05-1.27.05-1.52zM616.66 315.52v-3.79c0-.57-.21-.91-.61-1a2.53 2.53 0 0 0-.64-.07c-.18 0-.29 0-.29-.18s.14-.14.43-.14c.68 0 1.8.05 2.32.05s1.5-.05 2.18-.05c.23 0 .38 0 .38.14s-.11.18-.29.18a3 3 0 0 0-.54.05c-.48.09-.63.39-.66 1s0 1.07 0 3.79v3.15c0 1.73 0 3.14.07 3.91.05.48.18.8.71.88a7.55 7.55 0 0 0 .91.07c.2 0 .29.05.29.14s-.14.18-.34.18c-1.18 0-2.31-.05-2.79-.05s-1.54.05-2.25.05c-.23 0-.36-.05-.36-.18s.07-.14.29-.14a2.92 2.92 0 0 0 .64-.07c.36-.07.46-.38.52-.89.09-.75.09-2.16.09-3.9zM624.92 316.75v-3.22c0-.49-.18-.68-.68-.82a2.9 2.9 0 0 0-.62-.05c-.16 0-.27-.05-.27-.16s.13-.14.36-.14h4.59a5.51 5.51 0 0 1 3 .64 2.65 2.65 0 0 1 1.11 2.09c0 1.13-.64 2.13-2.18 3.36 1.39 1.72 2.5 3.09 3.45 4a3 3 0 0 0 1.68 1 1.47 1.47 0 0 0 .38 0 .18.18 0 0 1 .2.16c0 .13-.11.16-.3.16h-1.5a3.41 3.41 0 0 1-1.72-.3 7.12 7.12 0 0 1-2.14-2.23c-.63-.82-1.29-1.84-1.48-2.07a.36.36 0 0 0-.29-.11h-1.41a.11.11 0 0 0-.12.13v.21c0 1.41 0 2.59.09 3.23.05.45.13.73.61.8a5.89 5.89 0 0 0 .77.05.18.18 0 0 1 .2.16c0 .11-.12.16-.32.16-.91 0-2.22-.05-2.45-.05s-1.3.05-1.93.05c-.2 0-.3-.05-.3-.16s.05-.16.25-.16a2.3 2.3 0 0 0 .55-.05c.32-.07.41-.36.46-.8.07-.64.07-1.84.07-3.23zm2 1.18c0 .16 0 .21.14.27a4.3 4.3 0 0 0 1.2.14 1.58 1.58 0 0 0 1.11-.25 2.57 2.57 0 0 0 1-2.25 2.39 2.39 0 0 0-2.39-2.7 5.7 5.7 0 0 0-.93.05c-.11 0-.14.09-.14.21zM636.14 313.84c-.36-.84-.59-1-1.16-1.13a2.77 2.77 0 0 0-.61-.05c-.14 0-.18-.07-.18-.16s.16-.14.39-.14h4.29c.2 0 .38 0 .38.14s-.11.16-.25.16a1.16 1.16 0 0 0-.61.11.33.33 0 0 0-.16.3 4.36 4.36 0 0 0 .36 1.14l2.64 6.81h.05c.68-1.57 2.7-6.47 3.07-7.47a2.1 2.1 0 0 0 .14-.55c0-.16-.07-.21-.21-.27a2.41 2.41 0 0 0-.63-.07c-.14 0-.27-.05-.27-.16s.14-.14.45-.14h3.16c.2 0 .32 0 .32.14s-.09.16-.25.16a1.25 1.25 0 0 0-.77.18c-.2.14-.41.38-.82 1.34-.63 1.43-1 2.25-1.89 4.11-1 2.22-1.73 3.88-2.09 4.65s-.49 1.06-.74 1.06-.34-.2-.64-.91zM649.9 316.75v-3.22c0-.49-.2-.7-.54-.8a2 2 0 0 0-.57-.07c-.16 0-.25 0-.25-.18s.13-.12.38-.12H653.03c.2 0 .32 0 .32.13s-.09.18-.25.18a2.19 2.19 0 0 0-.46.05c-.43.07-.55.29-.59.82s0 .91 0 3.22v2.68c0 1.47 0 2.68.07 3.32.05.41.16.64.63.71a5.82 5.82 0 0 0 .8.05c.18 0 .25.09.25.16s-.12.16-.3.16c-1 0-2.11-.05-2.54-.05s-1.43.05-2.05.05c-.2 0-.3-.05-.3-.16s.05-.16.25-.16a2.3 2.3 0 0 0 .55-.05c.32-.07.41-.29.46-.73.07-.63.07-1.84.07-3.31zM659.05 321.77c0 1.18.23 1.54.54 1.64a2.67 2.67 0 0 0 .82.11c.18 0 .27.07.27.16s-.14.16-.36.16c-1 0-1.75-.05-2-.05s-.89.05-1.7.05c-.21 0-.36 0-.36-.16s.11-.16.25-.16a3.22 3.22 0 0 0 .71-.07c.41-.11.46-.52.48-1.84l.14-9c0-.3.11-.52.27-.52s.41.23.68.5 2.56 2.61 4.84 4.84c1.07 1.05 3.16 3.2 3.39 3.41h.07l-.16-6.75c0-.93-.16-1.2-.54-1.34a2.64 2.64 0 0 0-.82-.09c-.2 0-.25-.07-.25-.16s.16-.14.39-.14h3.54c.21 0 .36 0 .36.14s-.09.16-.27.16a1.59 1.59 0 0 0-.48.05c-.43.13-.55.39-.57 1.25l-.18 9.58c0 .34-.13.48-.25.48a.93.93 0 0 1-.64-.32c-1-.91-2.95-2.79-4.59-4.38s-3.38-3.48-3.68-3.75h-.05zM683.41 322.83c0 .41 0 .43-.2.54a9.47 9.47 0 0 1-3.84.68c-3.86 0-7.27-1.75-7.27-5.95a5.62 5.62 0 0 1 2.75-5 7.87 7.87 0 0 1 4.23-1 17.94 17.94 0 0 1 2.79.25 12.56 12.56 0 0 0 1.25.16c.18 0 .21.07.21.18a20.58 20.58 0 0 0-.11 2.5c0 .23-.09.34-.21.34s-.14-.07-.16-.2a2 2 0 0 0-.54-1.25 4.87 4.87 0 0 0-3.41-1.16 4.06 4.06 0 0 0-4.48 4.59c0 3.27 2.11 5.65 5.47 5.65A2.58 2.58 0 0 0 681 323a.5.5 0 0 0 .3-.54v-1.39-1.79c0-.47-.18-.68-.68-.82a2.83 2.83 0 0 0-.61-.05c-.14 0-.25-.07-.25-.16s.13-.14.34-.14h4.25c.21 0 .32 0 .32.14a.18.18 0 0 1-.2.16 2.15 2.15 0 0 0-.43.05c-.43.07-.59.29-.61.82s0 1.07 0 1.82zM696 310.55c.05-.3.16-.46.3-.46s.25.09.48.55l4.88 9.93 4.86-10.06c.14-.29.23-.43.39-.43s.27.18.32.55l1.63 10.94c.16 1.13.34 1.64.88 1.8a3.56 3.56 0 0 0 1.11.18c.16 0 .29 0 .29.13s-.21.2-.46.2c-.45 0-2.91 0-3.63-.09-.41 0-.52-.09-.52-.2s.07-.14.2-.2.16-.27.09-.77l-1.07-7.77h-.07l-3.9 8c-.41.84-.5 1-.66 1s-.34-.36-.63-.89c-.43-.82-1.84-3.56-2.05-4.06s-1.23-2.48-1.86-3.82h-.07l-.93 7a7.09 7.09 0 0 0-.05.84c0 .34.23.5.54.57a3.44 3.44 0 0 0 .75.09c.14 0 .27 0 .27.13s-.16.2-.43.2c-.75 0-1.55-.05-1.88-.05s-1.2.05-1.77.05c-.18 0-.32 0-.32-.2s.11-.12.29-.12a2.29 2.29 0 0 0 .54-.05c.5-.11.64-.8.73-1.41zM714.5 316.75v-3.22c0-.49-.18-.68-.68-.82a2.9 2.9 0 0 0-.62-.05c-.16 0-.27-.05-.27-.16s.13-.14.36-.14H719.85a6.51 6.51 0 0 0 .66-.09 1.86 1.86 0 0 1 .25-.07c.09 0 .11.07.11.14a6.71 6.71 0 0 0-.12 1c0 .16-.05.82-.09 1s-.05.25-.18.25-.12-.07-.12-.2a1.43 1.43 0 0 0-.11-.55c-.12-.27-.25-.48-1-.55-.27 0-2.14-.07-2.47-.07-.07 0-.11.05-.11.14v3.75c0 .09 0 .16.11.16h2.75a1.24 1.24 0 0 0 .75-.23c.13-.11.18-.2.25-.2a.14.14 0 0 1 .13.16c0 .09 0 .34-.12 1.11 0 .3-.07.91-.07 1s0 .34-.16.34-.14-.05-.14-.12 0-.36-.05-.55-.29-.54-.88-.59c-.29 0-2.07-.07-2.47-.07-.07 0-.09.07-.09.16v3.46c0 1 .52 1.27 2.13 1.27a4.24 4.24 0 0 0 1.48-.2c.39-.18.57-.5.68-1.13 0-.16.07-.23.18-.23s.14.2.14.36a10.28 10.28 0 0 1-.21 1.68c-.11.39-.25.39-.84.39-1.18 0-2.13 0-2.89-.05h-3.8c-.32 0-.3-.05-.3-.16s.05-.16.25-.16a2.3 2.3 0 0 0 .55-.05c.32-.07.41-.36.46-.8.07-.64.07-1.84.07-3.23zM725.33 316.75v-3.22c0-.49-.18-.68-.68-.82a2.9 2.9 0 0 0-.62-.05c-.16 0-.27-.05-.27-.16s.13-.14.36-.14h4.83c2 0 4.61 0 6.33 1.73a5.32 5.32 0 0 1 1.48 3.86 5.89 5.89 0 0 1-1.72 4.23 7.33 7.33 0 0 1-5.27 1.79c-.57 0-1.25-.05-1.88-.09s-1.2-.09-1.59-.09h-1.98c-.32 0-.3-.05-.3-.16s.05-.16.25-.16a2.3 2.3 0 0 0 .55-.05c.32-.07.41-.36.46-.8.07-.64.07-1.84.07-3.23zm2.11 1.68v3.07a2.77 2.77 0 0 0 .18 1.07c.2.29.82.61 2.05.61a5 5 0 0 0 3.43-1 4.64 4.64 0 0 0 1.34-3.77 4.94 4.94 0 0 0-1.46-3.79 6.34 6.34 0 0 0-4.4-1.45 3.32 3.32 0 0 0-1 .11.27.27 0 0 0-.2.3v3zM740.9 316.75v-3.22c0-.49-.2-.7-.54-.8a2 2 0 0 0-.57-.07c-.16 0-.25 0-.25-.18s.13-.12.38-.12H744.03c.2 0 .32 0 .32.13s-.09.18-.25.18a2.19 2.19 0 0 0-.46.05c-.43.07-.55.29-.59.82s0 .91 0 3.22v2.68c0 1.47 0 2.68.07 3.32.05.41.16.64.63.71a5.82 5.82 0 0 0 .8.05c.18 0 .25.09.25.16s-.12.16-.3.16c-1 0-2.11-.05-2.54-.05s-1.43.05-2.05.05c-.2 0-.3-.05-.3-.16s.05-.16.25-.16a2.3 2.3 0 0 0 .55-.05c.32-.07.41-.29.46-.73.07-.63.07-1.84.07-3.31zM749.14 322.4a5.86 5.86 0 0 1-.12-8.65 7.09 7.09 0 0 1 5-1.61 16.12 16.12 0 0 1 2.29.16c.59.09 1.11.2 1.57.25.18 0 .23.09.23.18s0 .3-.07.84 0 1.34-.05 1.64-.07.38-.21.38-.16-.12-.16-.32a2.14 2.14 0 0 0-.61-1.41 4.45 4.45 0 0 0-3-.89 4.24 4.24 0 0 0-3 .86 4.93 4.93 0 0 0-1.45 3.95 5.06 5.06 0 0 0 4.9 5.32c1.39 0 2.16-.11 2.79-.8a2.46 2.46 0 0 0 .54-1c0-.23.07-.3.2-.3s.18.14.18.27a13.4 13.4 0 0 1-.34 2 .53.53 0 0 1-.41.45 9.24 9.24 0 0 1-2.84.34 8.08 8.08 0 0 1-5.44-1.66zM763.06 320c-.09 0-.11 0-.14.11l-.84 2.05a2.76 2.76 0 0 0-.23.93c0 .27.14.43.63.43h.23c.2 0 .23.07.23.16s-.09.16-.25.16c-.52 0-1.25-.05-1.75-.05-.16 0-1 .05-1.82.05-.2 0-.29 0-.29-.16s.05-.16.18-.16h.46c.71-.11 1-.57 1.3-1.34l4.11-9.49c.18-.43.3-.61.46-.61s.3.14.46.48c.38.84 3 7 4 9.29.61 1.38 1.05 1.57 1.34 1.63a3.74 3.74 0 0 0 .59.05c.14 0 .21.05.21.16s-.09.16-.68.16h-3c-.29 0-.46 0-.46-.13s0-.14.2-.16a.24.24 0 0 0 .14-.34l-1.21-3.07a.15.15 0 0 0-.16-.11zm3.36-.84c.07 0 .09 0 .07-.09l-1.49-3.8c0-.05 0-.14-.07-.14s-.07.09-.09.14l-1.52 3.79c0 .07 0 .11.05.11zM776.68 319.43c0 1.95 0 2.91.34 3.2s.88.32 2.09.32c.84 0 1.45 0 1.84-.43a1.84 1.84 0 0 0 .39-.91c0-.14.05-.23.18-.23s.14.16.14.34a11.58 11.58 0 0 1-.23 1.75c-.11.34-.18.41-1 .41-1.12 0-2 0-2.82-.05s-1.45 0-2.09 0h-1.98c-.32 0-.3-.05-.3-.16s.05-.16.25-.16a2.29 2.29 0 0 0 .55-.05c.32-.07.41-.36.46-.8.07-.64.07-1.84.07-3.23v-2.68-3.22c0-.49-.18-.68-.68-.82a2.1 2.1 0 0 0-.52-.05c-.18 0-.27-.05-.27-.16s.11-.14.34-.14h4.43c.23 0 .34 0 .34.14s-.09.16-.29.16a3.51 3.51 0 0 0-.61.05c-.43.07-.55.29-.59.82s0 .91 0 3.22zM792.21 322.15a7.08 7.08 0 0 1-.12-10.17 7.79 7.79 0 0 1 5.65-1.89 17.64 17.64 0 0 1 2.59.18c.68.09 1.25.25 1.79.3.2 0 .27.11.27.21s-.05.36-.09 1 0 1.57-.05 1.93-.05.41-.21.41-.18-.14-.18-.39a2.55 2.55 0 0 0-.7-1.64 5.33 5.33 0 0 0-3.63-1.11 4.66 4.66 0 0 0-3.36 1.11 6.68 6.68 0 0 0 4 11c1.59 0 2.56-.18 3.27-1a3 3 0 0 0 .61-1.18c.05-.29.09-.36.23-.36s.16.13.16.27a17 17 0 0 1-.39 2.38.63.63 0 0 1-.46.52 10.34 10.34 0 0 1-3.22.41 8.93 8.93 0 0 1-6.16-1.98zM806.78 316.75v-3.22c0-.49-.18-.68-.68-.82a2.9 2.9 0 0 0-.62-.05c-.16 0-.27-.05-.27-.16s.13-.14.36-.14H812.13a6.51 6.51 0 0 0 .66-.09 1.86 1.86 0 0 1 .25-.07c.09 0 .11.07.11.14a6.63 6.63 0 0 0-.12 1c0 .16-.05.82-.09 1s-.05.25-.18.25-.12-.07-.12-.2a1.42 1.42 0 0 0-.11-.55c-.12-.27-.25-.48-1-.55-.27 0-2.14-.07-2.47-.07-.07 0-.11.05-.11.14v3.75c0 .09 0 .16.11.16h2.75a1.24 1.24 0 0 0 .75-.23c.13-.11.18-.2.25-.2a.14.14 0 0 1 .13.16c0 .09 0 .34-.12 1.11 0 .3-.07.91-.07 1s0 .34-.16.34-.14-.05-.14-.12 0-.36-.05-.55-.29-.54-.88-.59c-.29 0-2.07-.07-2.47-.07-.07 0-.09.07-.09.16v3.46c0 1 .52 1.27 2.13 1.27a4.24 4.24 0 0 0 1.48-.2c.39-.18.57-.5.68-1.13 0-.16.07-.23.18-.23s.14.2.14.36a10.33 10.33 0 0 1-.21 1.68c-.11.39-.25.39-.84.39-1.18 0-2.13 0-2.89-.05h-3.8c-.32 0-.3-.05-.3-.16s.05-.16.25-.16a2.3 2.3 0 0 0 .55-.05c.32-.07.41-.36.46-.8.07-.64.07-1.84.07-3.23zM818.59 321.77c0 1.18.23 1.54.54 1.64a2.66 2.66 0 0 0 .82.11c.18 0 .27.07.27.16s-.14.16-.36.16c-1 0-1.75-.05-2-.05s-.89.05-1.7.05c-.21 0-.36 0-.36-.16s.11-.16.25-.16a3.23 3.23 0 0 0 .71-.07c.41-.11.46-.52.48-1.84l.14-9c0-.3.11-.52.27-.52s.41.23.68.5 2.56 2.61 4.84 4.84c1.07 1.05 3.16 3.2 3.39 3.41h.07l-.16-6.75c0-.93-.16-1.2-.54-1.34a2.64 2.64 0 0 0-.82-.09c-.2 0-.25-.07-.25-.16s.16-.14.39-.14h3.54c.21 0 .36 0 .36.14s-.09.16-.27.16a1.59 1.59 0 0 0-.48.05c-.43.13-.55.39-.57 1.25l-.18 9.58c0 .34-.12.48-.25.48a.94.94 0 0 1-.64-.32c-1-.91-2.95-2.79-4.59-4.38s-3.38-3.48-3.68-3.75h-.05zM835.63 313.29l-2.34.05c-.91 0-1.29.13-1.52.46a1.75 1.75 0 0 0-.27.52c0 .13-.07.2-.18.2s-.14-.09-.14-.25.3-1.72.34-1.84.09-.29.18-.29.29.13.68.18a14.74 14.74 0 0 0 1.57.07h6.38a7 7 0 0 0 1.07-.07l.43-.07c.11 0 .13.09.13.32v1.84c0 .16-.05.25-.14.25s-.16-.07-.18-.3v-.16c0-.39-.45-.86-1.86-.88h-2v6.15c0 1.39 0 2.59.09 3.25.05.43.14.71.61.79a5.81 5.81 0 0 0 .8.05c.18 0 .25.09.25.16s-.12.16-.3.16c-1 0-2.09-.05-2.54-.05s-1.43.05-2.05.05c-.2 0-.3-.05-.3-.16s.05-.16.25-.16a2.19 2.19 0 0 0 .55-.05c.32-.07.41-.36.46-.8.07-.64.07-1.84.07-3.23zM845.74 316.75v-3.22c0-.49-.18-.68-.68-.82a2.9 2.9 0 0 0-.62-.05c-.16 0-.27-.05-.27-.16s.13-.14.36-.14H851.09a6.51 6.51 0 0 0 .66-.09 1.86 1.86 0 0 1 .25-.07c.09 0 .11.07.11.14a6.63 6.63 0 0 0-.12 1c0 .16-.05.82-.09 1s-.05.25-.18.25-.12-.07-.12-.2a1.42 1.42 0 0 0-.11-.55c-.12-.27-.25-.48-1-.55-.27 0-2.14-.07-2.47-.07-.07 0-.11.05-.11.14v3.75c0 .09 0 .16.11.16h2.75a1.24 1.24 0 0 0 .75-.23c.13-.11.18-.2.25-.2a.14.14 0 0 1 .13.16c0 .09 0 .34-.12 1.11 0 .3-.07.91-.07 1s0 .34-.16.34-.14-.05-.14-.12 0-.36-.05-.55-.29-.54-.88-.59c-.29 0-2.07-.07-2.47-.07-.07 0-.09.07-.09.16v3.46c0 1 .52 1.27 2.13 1.27a4.24 4.24 0 0 0 1.48-.2c.39-.18.57-.5.68-1.13 0-.16.07-.23.18-.23s.14.2.14.36a10.33 10.33 0 0 1-.21 1.68c-.11.39-.25.39-.84.39-1.18 0-2.13 0-2.89-.05h-3.8c-.32 0-.3-.05-.3-.16s.05-.16.25-.16a2.3 2.3 0 0 0 .55-.05c.32-.07.41-.36.46-.8.07-.64.07-1.84.07-3.23zM856.57 316.75v-3.22c0-.49-.18-.68-.68-.82a2.9 2.9 0 0 0-.62-.05c-.16 0-.27-.05-.27-.16s.13-.14.36-.14h4.59a5.51 5.51 0 0 1 3 .64 2.66 2.66 0 0 1 1.11 2.09c0 1.13-.64 2.13-2.18 3.36 1.39 1.72 2.5 3.09 3.45 4a3 3 0 0 0 1.68 1 1.48 1.48 0 0 0 .38 0 .18.18 0 0 1 .2.16c0 .13-.11.16-.3.16h-1.5a3.41 3.41 0 0 1-1.72-.3 7.12 7.12 0 0 1-2.14-2.23c-.63-.82-1.29-1.84-1.48-2.07a.36.36 0 0 0-.29-.11h-1.41a.11.11 0 0 0-.12.13v.21c0 1.41 0 2.59.09 3.23.05.45.13.73.61.8a5.9 5.9 0 0 0 .77.05.18.18 0 0 1 .2.16c0 .11-.12.16-.32.16-.91 0-2.22-.05-2.45-.05s-1.3.05-1.93.05c-.2 0-.3-.05-.3-.16s.05-.16.25-.16a2.3 2.3 0 0 0 .55-.05c.32-.07.41-.36.46-.8.07-.64.07-1.84.07-3.23zm2 1.18c0 .16 0 .21.14.27a4.31 4.31 0 0 0 1.2.14 1.58 1.58 0 0 0 1.11-.25 2.57 2.57 0 0 0 1-2.25 2.39 2.39 0 0 0-2.39-2.7 5.71 5.71 0 0 0-.93.05c-.11 0-.14.09-.14.21z" transform="translate(-351.34 -285.66)"/><path id="Columbia_Trademark" data-name="Columbia Trademark" class="cls-2" d="M428.2 317c-.26 0-.33.13-.42.65a5.4 5.4 0 0 1-1.1 2.14c-1.3 1.5-3.06 1.82-6 1.82-4.35 0-10.24-3.84-10.24-11.57 0-3.15.62-6.24 3-8.42a8.47 8.47 0 0 1 6.11-2c3 0 5.52.88 6.6 2a4.62 4.62 0 0 1 1.27 3c0 .46.07.72.32.72s.36-.26.39-.75c.07-.65 0-2.44.1-3.51s.16-1.53.16-1.79-.13-.36-.49-.39c-1-.1-2-.39-3.25-.55a32.28 32.28 0 0 0-4.71-.32c-4.84 0-7.93 1.3-10.27 3.44a12.87 12.87 0 0 0 .23 18.5c3 2.57 6.7 3.54 11.15 3.54a18.73 18.73 0 0 0 5.85-.75 1.14 1.14 0 0 0 .85-.94 30.8 30.8 0 0 0 .72-4.33c.03-.22-.04-.49-.27-.49zm15.62-14.91c-8.16 0-11.23 6-11.23 10.66 0 4.81 3.15 10.66 11 10.66 6.91 0 11.26-4.92 11.26-11.15s-4.26-10.13-11.03-10.13zm.87 20c-5.22 0-8.35-4.49-8.35-10.14 0-6.77 3.56-8.51 6.69-8.51 4.46 0 8 3.78 8 9.87-.03 7.86-4.43 8.78-6.34 8.78zm51.84-19.58c-1.06 0-2.78.08-3.1.08 0 0-1.74-.08-3.13-.08-.38 0-.57.05-.57.25s.16.24.46.24a5.45 5.45 0 0 1 1 .08c.9.19 1.11.63 1.17 1.55s.05 1.63.05 5.76v3.4c0 2.8-.08 5.25-1.58 6.74a5.32 5.32 0 0 1-3.75 1.47 5 5 0 0 1-3.4-1.12c-1.33-1.08-2.12-2.75-2.12-6.69v-3.79c0-4.13 0-4.9.05-5.76s.27-1.42 1-1.55a4.21 4.21 0 0 1 .79-.08c.27 0 .43-.06.43-.24s-.19-.25-.6-.25c-1 0-2.69.08-3.34.08-.82 0-2.53-.08-4-.08-.41 0-.6.05-.6.25s.16.24.46.24a5.76 5.76 0 0 1 1.06.08c.9.19 1.11.63 1.17 1.55s.06 1.63.06 5.76v4c0 3.94 1 6 2.42 7.21a8.73 8.73 0 0 0 6 1.88 8.12 8.12 0 0 0 5.66-2c2.28-2 2.58-5.17 2.58-8.19v-2.9c0-4.13 0-4.9.05-5.76s.27-1.42 1-1.55a4.21 4.21 0 0 1 .79-.08c.33 0 .49-.06.49-.24s-.12-.26-.5-.26zm60.63 20.07a11.82 11.82 0 0 1-1.39-.11c-.82-.11-1-.6-1.09-1.33-.11-1.17-.11-3.32-.11-6v-4.74c0-4.13 0-4.9.05-5.76s.27-1.42 1-1.55a4.72 4.72 0 0 1 .82-.08c.27 0 .43-.06.43-.27s-.22-.22-.57-.22c-1 0-2.64.08-3.32.08s-2.5-.08-3.54-.08c-.43 0-.65.05-.65.22s.16.27.44.27a3.79 3.79 0 0 1 1 .11c.6.14.87.6.93 1.52s.05 1.63.05 5.76v4.79c0 2.64 0 4.79-.14 5.93-.08.79-.24 1.25-.79 1.36a4.54 4.54 0 0 1-1 .11c-.33 0-.44.08-.44.22s.19.27.54.27c1.09 0 2.8-.08 3.43-.08s2.45.08 4.24.08c.3 0 .52-.08.52-.27s-.11-.22-.41-.22zm-84.56-3.76c-.22 0-.27.17-.3.41a3.41 3.41 0 0 1-.71 1.63c-.68.73-1.74.76-3.18.76-2.12 0-2.83-.19-3.29-.6s-.57-2.36-.57-5.85v-4.77c0-4.13 0-4.9.06-5.77s.27-1.41 1-1.55a7.47 7.47 0 0 1 1.06-.08c.33 0 .49-.06.49-.25s-.19-.25-.57-.25c-1.06 0-3 .09-3.7.09s-2.45-.09-3.73-.09c-.41 0-.6.05-.6.25s.16.25.46.25a4.17 4.17 0 0 1 .9.08c.9.19 1.12.63 1.17 1.55s.06 1.63.06 5.77v4.79c0 2.5 0 4.65-.14 5.79-.11.79-.24 1.39-.79 1.5a4.54 4.54 0 0 1-1 .11c-.33 0-.44.08-.44.22s.19.27.54.27c1.09 0 2.8-.08 3.43-.08 2.2 0 4 .16 7.91.16 1.41 0 1.55-.14 1.71-.73a21.41 21.41 0 0 0 .41-3.13c.04-.3.01-.47-.18-.47zm67.3-7.48c1.5-1.2 2.77-2.53 2.77-4.76 0-1.44-.87-4.08-5.79-4.08-.93 0-2 .08-3.32.08-.54 0-2.26-.08-3.7-.08-.41 0-.6.05-.6.25s.16.24.46.24a5.75 5.75 0 0 1 1.06.08c.9.19 1.12.63 1.17 1.55s.05 1.63.05 5.77v4.79c0 2.5 0 4.65-.14 5.79-.11.79-.25 1.39-.79 1.5a4.56 4.56 0 0 1-1 .11c-.33 0-.44.08-.44.22s.19.27.54.27c1.09 0 2.8-.08 3.43-.08.82 0 3.29.16 3.94.16 5 0 7.26-3 7.26-5.93.05-3.22-2.67-5.11-4.9-5.87zm-4.62-7.21c0-.3.05-.41.25-.46a4.36 4.36 0 0 1 .9-.05c2.34 0 3.4 2.39 3.4 4.22a3.55 3.55 0 0 1-1.12 2.88 2.77 2.77 0 0 1-2 .52 6.68 6.68 0 0 1-1.28-.08c-.11 0-.19-.08-.19-.3zm2.94 17.79a4.93 4.93 0 0 1-2-.33c-.87-.35-1-.82-1-2.61v-6.44c0-.14.05-.19.16-.19h1.17a3.89 3.89 0 0 1 2.26.65 6.48 6.48 0 0 1 2.64 5.41 3.17 3.17 0 0 1-3.23 3.52zm-12 .65a5.43 5.43 0 0 1-1.69-.27c-.81-.24-1.09-1-1.33-2.75l-2.48-16.8c-.08-.57-.24-.85-.49-.85s-.41.22-.6.65l-7.4 15.53-7.42-15.34c-.35-.71-.52-.85-.73-.85s-.38.25-.46.71l-2.69 17.73c-.14.92-.35 2-1.12 2.15a3.41 3.41 0 0 1-.81.08c-.27 0-.44.05-.44.19s.22.3.49.3c.87 0 2.18-.09 2.69-.09s1.71.09 2.86.09c.41 0 .65-.06.65-.3s-.19-.19-.41-.19a5.26 5.26 0 0 1-1.14-.14c-.46-.11-.82-.35-.82-.87a10.58 10.58 0 0 1 .08-1.28l1.41-10.82h.11c1 2 2.58 5.46 2.83 6 .33.76 2.48 4.92 3.13 6.17.44.82.71 1.36 1 1.36s.38-.25 1-1.52l5.93-12.35h.11l1.63 12c.11.76 0 1.11-.14 1.17s-.3.16-.3.3.16.24.79.3c1.09.08 4.84.16 5.52.16.38 0 .71-.08.71-.3s-.22-.15-.46-.15zm55.64 0a6 6 0 0 1-1.14-.11c-.57-.13-1.36-.52-2.4-3-1.74-4.13-6.09-15.23-6.74-16.73-.27-.62-.43-.87-.68-.87s-.44.3-.76 1.09l-6.83 17.08c-.54 1.36-1.06 2.28-2.31 2.45a7.59 7.59 0 0 1-.84.06c-.22 0-.33.05-.33.22s.16.27.52.27c1.41 0 2.91-.08 3.21-.08.85 0 2 .08 2.88.08.3 0 .46-.06.46-.27s-.08-.22-.41-.22h-.41c-.84 0-1.09-.36-1.09-.85a5.26 5.26 0 0 1 .41-1.66l1.47-3.89c.05-.16.11-.22.24-.22h6.07a.26.26 0 0 1 .27.19l2.18 5.77a.44.44 0 0 1-.25.63c-.27 0-.38.08-.38.24s.32.19.82.22c2.18.06 4.16.06 5.14.06s1.25-.06 1.25-.27-.13-.17-.34-.17zm-9.19-8h-5c-.11 0-.14-.08-.11-.19l2.5-6.69c0-.11.08-.24.16-.24s.11.14.14.24l2.45 6.72c.03.12 0 .21-.14.21zm-215.89 8.45h31.12v-2.52h-31.12zM376 300.73a1.16 1.16 0 0 1-1.09-.26 6.8 6.8 0 0 0-.9-.62 3.18 3.18 0 0 0-1.13-5.88l1.17-1.51a.47.47 0 0 0 0-.54l-1.5-1.92a.25.25 0 0 0-.21-.11.26.26 0 0 0-.21.11l-1.45 1.88a.46.46 0 0 0 0 .54l1.17 1.51a3.18 3.18 0 0 0-1.13 5.88 6.76 6.76 0 0 0-.9.62 1.16 1.16 0 0 1-1.09.26c-6.63-2.12-12.48-4.16-15.8-.9-4 3.91.65 10.22 2.11 12.82a12.55 12.55 0 0 1 1.75 5.63h31.11a12.54 12.54 0 0 1 1.75-5.63c1.46-2.6 6.1-8.91 2.11-12.82-3.33-3.22-9.18-1.18-15.76.94zm-8.36 15.4c-1.2.08-2.2-1-2.58-2.55l1-2.31a.58.58 0 0 0-.13-.66l-3.13-3.12c-.18-.18-.34-.18-.42 0l-1.48 3.12a.59.59 0 0 0 .17.65l2.34 2.36c.49 1.86-.77 2.53-1.48 2.53-2.48 0-4.46-3.37-6.48-6.86s-2.69-5.94-1.19-7.83c2.5-3.16 9.08-.66 14.19 1.67a5.5 5.5 0 0 0 .58 2.59c2.62 6.01.8 10.28-1.43 10.41zm21.7-6.84c-2 3.49-4 6.86-6.48 6.86-.71 0-2-.67-1.48-2.53l2.34-2.36a.58.58 0 0 0 .17-.65l-1.48-3.12c-.08-.18-.25-.18-.42 0l-3.13 3.12a.58.58 0 0 0-.13.66l1 2.31c-.38 1.52-1.37 2.64-2.58 2.55-2.24-.15-4.06-4.41-1.36-10.41a5.49 5.49 0 0 0 .58-2.59c5.11-2.33 11.68-4.83 14.19-1.67 1.44 1.89.72 4.4-1.27 7.83z" transform="translate(-351.34 -285.66)"/></g></g></g></svg>